<?xml version="1.0" encoding="utf-8"?>
<!-- Generator: Adobe Illustrator 22.1.0, SVG Export Plug-In . SVG Version: 6.00 Build 0)  -->
<svg version="1.1" id="Main_Frame" xmlns="http://www.w3.org/2000/svg" xmlns:xlink="http://www.w3.org/1999/xlink" x="0px" y="0px"
	 viewBox="0 0 812.8 880.9" style="enable-background:new 0 0 812.8 880.9;" xml:space="preserve">
<style type="text/css">
	.st0{fill:none;stroke:#000000;stroke-miterlimit:10;}
	.st1{fill:#A3E4F5;stroke:#000000;stroke-miterlimit:10;}
	.st2{fill:#C0ECB1;stroke:#000000;stroke-miterlimit:10;}
	.st3{fill:#FFFFFF;stroke:#000000;stroke-miterlimit:10;}
	.st4{fill:#EF6C82;stroke:#000000;stroke-miterlimit:10;}
	.st5{fill:#FFEABB;stroke:#000000;stroke-miterlimit:10;}
	.st6{fill:#FFFFFF;}
	.st7{fill:none;}
	.st8{fill:none;stroke:#000000;stroke-width:1.5;stroke-miterlimit:10;}
	.st9{fill:none;stroke:#000000;stroke-width:3;stroke-miterlimit:10;}
	.st10{font-family:'DevanagariSangamMN-Bold';}
	.st11{font-size:10.42px;}
	.st12{font-size:7.58px;}
	.st13{font-size:8.53px;}
	.st14{font-size:17.06px;}
</style>
<title>1stFloor</title>
<g id="Layer_2_1_">
	<line class="st0" x1="308.9" y1="0.8" x2="53" y2="0.8"/>
	<line class="st0" x1="53" y1="1.1" x2="53" y2="539.2"/>
	<line class="st0" x1="308.5" y1="0.4" x2="308.1" y2="251.6"/>
	<line class="st0" x1="307.7" y1="251.2" x2="411.6" y2="251.3"/>
	<line class="st0" x1="411.1" y1="251.3" x2="411.3" y2="348.3"/>
	<line class="st0" x1="361.1" y1="347.9" x2="503.4" y2="348.2"/>
	<line class="st0" x1="503" y1="348.1" x2="502.9" y2="527.7"/>
	<line class="st0" x1="503.3" y1="527.7" x2="363.4" y2="527.4"/>
	<line class="st0" x1="0.7" y1="880.3" x2="0.5" y2="649.5"/>
	<line class="st0" x1="0.2" y1="880.3" x2="122.4" y2="880.3"/>
	<line class="st0" x1="386.4" y1="879.5" x2="386.3" y2="609.9"/>
	<polyline class="st1" points="312.5,284.5 411,284.3 411.1,267.8 312.3,267.8 	"/>
	<line class="st0" x1="378.1" y1="348" x2="378.1" y2="321"/>
	<line class="st0" x1="378.3" y1="321.5" x2="361.5" y2="321.5"/>
	<path class="st0" d="M358.5,363.6"/>
	<path class="st0" d="M358.5,338"/>
	<line class="st0" x1="357.9" y1="320.6" x2="357.9" y2="320.6"/>
	<line class="st0" x1="502.7" y1="467.8" x2="362.9" y2="467.9"/>
	<polygon class="st0" points="439.8,434.4 439.7,371.4 502.9,371.5 502.9,434.6 	"/>
	<polygon class="st0" points="416.2,467.8 416.2,451.4 482.8,451.2 482.7,467.7 	"/>
	<rect x="53" y="0.8" class="st2" width="66.1" height="71.8"/>
	<rect x="207.9" y="0.8" class="st2" width="68.9" height="71.8"/>
	<rect x="207.9" y="102.4" class="st2" width="69.7" height="69.7"/>
	<rect x="53" y="102.4" class="st2" width="66.1" height="69.7"/>
	<rect x="53" y="194.8" class="st3" width="125.1" height="56.1"/>
	<rect x="53" y="251" class="st1" width="125.1" height="95.2"/>
	<polygon class="st0" points="44.5,292.9 44.5,292.9 44.5,292.9 44.5,292.9 	"/>
	<path class="st4" d="M54.7,575.3"/>
	<path class="st4" d="M43.1,625.6"/>
	<polyline class="st5" points="52.7,538.9 53,467.1 102.6,467.2 102.6,650.4 0.8,650.4 	"/>
	<polyline class="st5" points="0.5,650.8 0.5,591.3 52.9,538.5 	"/>
	<path class="st4" d="M0.5,650.8"/>
	<path class="st0" d="M360.3,609.1"/>
	<path class="st0" d="M359.3,578.5"/>
	<rect x="53" y="381.8" class="st5" width="50.5" height="51.2"/>
	<path class="st0" d="M103.5,413.2"/>
	<rect x="77.2" y="381.7" class="st5" width="26.2" height="18.2"/>
	<rect x="77.3" y="414.8" class="st5" width="26.2" height="18.2"/>
	<polygon class="st1" points="122.3,880.3 122.3,869 386.3,868.9 386.4,880.4 	"/>
	<rect x="127.3" y="362.2" class="st1" width="50.8" height="14.9"/>
	<rect x="407.8" y="381.8" class="st0" width="9.1" height="51.2"/>
	<rect x="359.7" y="381.8" class="st1" width="36.1" height="51.2"/>
	<line class="st0" x1="312.8" y1="267.3" x2="312.8" y2="284.9"/>
	<polygon class="st0" points="311.2,348 311.4,289.8 361.5,289.8 361.1,347.9 	"/>
	<polygon class="st6" points="105.2,414.2 77.7,414.3 77.7,400.2 105.7,400.3 	"/>
	<line class="st7" x1="77" y1="399.7" x2="77" y2="416.4"/>
	<line class="st7" x1="77.2" y1="400.3" x2="77.3" y2="414.9"/>
	<line class="st7" x1="33.8" y1="423.1" x2="38.7" y2="430.2"/>
	<rect x="302.5" y="467.9" class="st5" width="60.7" height="59.5"/>
	<rect x="302.5" y="527.5" class="st5" width="31.7" height="28.6"/>
	<polygon class="st5" points="334.2,556.1 363,556.1 363.2,527.5 334.2,527.5 	"/>
	<rect x="302.8" y="581.1" class="st5" width="31.7" height="28.6"/>
	<polygon class="st5" points="334.4,609.7 363,609.8 363.1,581.1 334.4,581.1 	"/>
	<polygon class="st0" points="471.2,592.4 363.1,592.4 363.1,527.5 471.1,527.7 	"/>
</g>
<line id="AC255" class="st0" x1="277.6" y1="137.3" x2="207.9" y2="137.3"/>
<line id="AC255-2" class="st0" x1="119.1" y1="36.7" x2="53" y2="36.7"/>
<line id="AC254" class="st0" x1="277" y1="36.7" x2="207.9" y2="36.7"/>
<line id="AC257_AC256" class="st0" x1="119.1" y1="137.3" x2="53" y2="137.3"/>
<line id="AC252" class="st0" x1="242.8" y1="102.4" x2="242.8" y2="172.1"/>
<rect id="AC275" x="127.7" y="467.1" class="st5" width="149.9" height="143"/>
<rect id="Above_AC275_3_rooms" x="237.5" y="467.1" class="st5" width="40.1" height="40.1"/>
<rect x="127.7" y="450.7" class="st1" width="149.8" height="16.4"/>
<rect x="127.7" y="467.1" class="st0" width="149.9" height="40.1"/>
<polygon id="AC275-2" class="st0" points="127.7,507.2 127.9,467.1 167.2,467.2 167.1,507.2 "/>
<rect id="Nook" x="127.7" y="381.8" class="st1" width="149.1" height="51.2"/>
<g id="Layer_7_AND_ELEVATOR_TEXT">
	<path class="st7" d="M471.3,645.9"/>
</g>
<line id="_264" class="st0" x1="77.2" y1="399.3" x2="77.3" y2="414.9"/>
<line id="AC254-2" class="st0" x1="242.8" y1="36.7" x2="242.8" y2="72.6"/>
<image style="overflow:visible;enable-background:new    ;" width="2000" height="1845" xlink:href="1F7D743A2663D25E.png"  transform="matrix(1.000000e-02 0 0 1.000000e-02 325.41 316.02)">
</image>
<path class="st0" d="M17.2,418.8"/>
<g id="books_lines_and_compact_storage">
	<polygon class="st6" points="270.1,635.5 130.4,635.8 130.4,628.1 270.1,627.8 	"/>
	<polygon class="st0" points="270.1,635.5 130.4,635.8 130.4,628.1 270.1,627.8 	"/>
	<line class="st0" x1="130.5" y1="631.8" x2="270.1" y2="631.7"/>
	<line class="st0" x1="150.1" y1="627.8" x2="150" y2="635.8"/>
	<line class="st0" x1="160.2" y1="627.7" x2="160.1" y2="635.4"/>
	<line class="st0" x1="170.2" y1="628.1" x2="170.2" y2="635.3"/>
	<line class="st0" x1="180.2" y1="628.3" x2="180.2" y2="635.6"/>
	<line class="st0" x1="190.2" y1="628" x2="190.2" y2="635.6"/>
	<line class="st0" x1="200.2" y1="628.1" x2="200.2" y2="635.6"/>
	<line class="st0" x1="210.1" y1="627.9" x2="210.1" y2="635.4"/>
	<line class="st0" x1="220.1" y1="627.9" x2="220" y2="635.2"/>
	<line class="st0" x1="230.2" y1="628" x2="230.1" y2="635.2"/>
	<line class="st0" x1="240" y1="628" x2="239.9" y2="635.4"/>
	<line class="st0" x1="250.1" y1="627.8" x2="250" y2="635.3"/>
	<line class="st0" x1="260.1" y1="628.1" x2="260.1" y2="635.3"/>
	<line class="st0" x1="140.1" y1="627.8" x2="140.1" y2="635.8"/>
	<path class="st0" d="M386.2,633.7"/>
	<path class="st0" d="M316.3,637.7"/>
	<line class="st0" x1="326.2" y1="629.9" x2="326.2" y2="637.5"/>
	<line class="st0" x1="336.2" y1="629.9" x2="336.1" y2="637.3"/>
	<line class="st0" x1="346.3" y1="630" x2="346.2" y2="637.3"/>
	<line class="st0" x1="356.2" y1="630" x2="356" y2="637.5"/>
	<line class="st0" x1="366.3" y1="629.8" x2="366.2" y2="637.4"/>
	<line class="st0" x1="376.2" y1="630.1" x2="376.2" y2="637.4"/>
	<polygon class="st6" points="386.1,637.4 316.5,637.7 316.5,630 386.1,629.7 	"/>
	<polygon class="st0" points="386.1,637.4 316.5,637.7 316.5,630 386.1,629.7 	"/>
	<line class="st0" x1="316.7" y1="633.7" x2="386.2" y2="633.7"/>
	<path class="st0" d="M316.3,630.1"/>
	<line class="st0" x1="326.2" y1="629.9" x2="326.2" y2="637.5"/>
	<line class="st0" x1="336.2" y1="629.9" x2="336.1" y2="637.3"/>
	<line class="st0" x1="346.3" y1="630" x2="346.2" y2="637.3"/>
	<line class="st0" x1="356.2" y1="630" x2="356" y2="637.5"/>
	<line class="st0" x1="366.3" y1="629.8" x2="366.2" y2="637.4"/>
	<line class="st0" x1="376.2" y1="630.1" x2="376.2" y2="637.4"/>
	<path class="st0" d="M316.3,630.1"/>
	<line class="st0" x1="326.2" y1="629.9" x2="326.2" y2="637.5"/>
	<line class="st0" x1="336.2" y1="629.9" x2="336.1" y2="637.3"/>
	<line class="st0" x1="346.3" y1="630" x2="346.2" y2="637.3"/>
	<line class="st0" x1="356.2" y1="630" x2="356" y2="637.5"/>
	<line class="st0" x1="366.3" y1="629.8" x2="366.2" y2="637.4"/>
	<line class="st0" x1="376.2" y1="630.1" x2="376.2" y2="637.4"/>
	<polygon class="st6" points="270.5,663.5 130.9,663.8 130.9,656.1 270.5,655.8 	"/>
	<polygon class="st0" points="270.5,663.5 130.9,663.8 130.9,656.1 270.5,655.8 	"/>
	<line class="st0" x1="130.9" y1="659.8" x2="270.5" y2="659.7"/>
	<line class="st0" x1="150.5" y1="655.8" x2="150.4" y2="663.7"/>
	<line class="st0" x1="160.6" y1="655.7" x2="160.5" y2="663.4"/>
	<line class="st0" x1="170.6" y1="656.1" x2="170.6" y2="663.3"/>
	<line class="st0" x1="180.6" y1="656.3" x2="180.6" y2="663.6"/>
	<line class="st0" x1="190.6" y1="656" x2="190.6" y2="663.6"/>
	<line class="st0" x1="200.6" y1="656.1" x2="200.6" y2="663.6"/>
	<line class="st0" x1="210.5" y1="655.9" x2="210.5" y2="663.4"/>
	<line class="st0" x1="220.5" y1="655.9" x2="220.4" y2="663.2"/>
	<line class="st0" x1="230.6" y1="656" x2="230.5" y2="663.2"/>
	<line class="st0" x1="240.4" y1="656" x2="240.3" y2="663.4"/>
	<line class="st0" x1="250.6" y1="655.8" x2="250.4" y2="663.3"/>
	<line class="st0" x1="260.5" y1="656.1" x2="260.5" y2="663.3"/>
	<line class="st0" x1="140.5" y1="655.8" x2="140.5" y2="663.8"/>
	<polygon class="st6" points="270.5,690.4 130.9,690.7 130.9,683 270.5,682.6 	"/>
	<polygon class="st0" points="270.5,690.4 130.9,690.7 130.9,683 270.5,682.6 	"/>
	<line class="st0" x1="130.9" y1="686.7" x2="270.5" y2="686.5"/>
	<line class="st0" x1="150.5" y1="682.6" x2="150.4" y2="690.6"/>
	<line class="st0" x1="160.6" y1="682.5" x2="160.5" y2="690.3"/>
	<line class="st0" x1="170.6" y1="682.9" x2="170.6" y2="690.2"/>
	<line class="st0" x1="180.6" y1="683.1" x2="180.6" y2="690.5"/>
	<line class="st0" x1="190.6" y1="682.8" x2="190.6" y2="690.5"/>
	<line class="st0" x1="200.6" y1="682.9" x2="200.6" y2="690.5"/>
	<line class="st0" x1="210.5" y1="682.7" x2="210.5" y2="690.3"/>
	<line class="st0" x1="220.5" y1="682.7" x2="220.4" y2="690.1"/>
	<line class="st0" x1="230.6" y1="682.8" x2="230.5" y2="690.1"/>
	<line class="st0" x1="240.4" y1="682.8" x2="240.3" y2="690.3"/>
	<line class="st0" x1="250.6" y1="682.6" x2="250.4" y2="690.2"/>
	<line class="st0" x1="260.5" y1="682.9" x2="260.5" y2="690.2"/>
	<line class="st0" x1="140.5" y1="682.7" x2="140.5" y2="690.6"/>
	<polygon class="st6" points="270.6,717.1 130.9,717.5 130.9,709.7 270.6,709.4 	"/>
	<polygon class="st0" points="270.6,717.1 130.9,717.5 130.9,709.7 270.6,709.4 	"/>
	<line class="st0" x1="130.9" y1="713.4" x2="270.5" y2="713.3"/>
	<line class="st0" x1="150.5" y1="709.4" x2="150.4" y2="717.3"/>
	<line class="st0" x1="160.6" y1="709.3" x2="160.5" y2="717"/>
	<line class="st0" x1="170.6" y1="709.7" x2="170.6" y2="716.9"/>
	<line class="st0" x1="180.7" y1="709.9" x2="180.7" y2="717.2"/>
	<line class="st0" x1="190.7" y1="709.6" x2="190.7" y2="717.2"/>
	<line class="st0" x1="200.6" y1="709.7" x2="200.6" y2="717.2"/>
	<line class="st0" x1="210.5" y1="709.5" x2="210.5" y2="717"/>
	<line class="st0" x1="220.5" y1="709.5" x2="220.4" y2="716.8"/>
	<line class="st0" x1="230.6" y1="709.6" x2="230.5" y2="716.8"/>
	<line class="st0" x1="240.4" y1="709.6" x2="240.4" y2="717"/>
	<line class="st0" x1="250.6" y1="709.4" x2="250.5" y2="716.9"/>
	<line class="st0" x1="260.5" y1="709.7" x2="260.5" y2="716.9"/>
	<line class="st0" x1="140.6" y1="709.4" x2="140.6" y2="717.4"/>
	<polygon class="st6" points="270.6,743.7 131,744.1 131,736.4 270.6,736 	"/>
	<polygon class="st0" points="270.6,743.7 131,744.1 131,736.4 270.6,736 	"/>
	<line class="st0" x1="131" y1="740.1" x2="270.6" y2="739.9"/>
	<line class="st0" x1="150.6" y1="736" x2="150.5" y2="744"/>
	<line class="st0" x1="160.7" y1="735.9" x2="160.6" y2="743.7"/>
	<line class="st0" x1="170.7" y1="736.3" x2="170.7" y2="743.6"/>
	<line class="st0" x1="180.7" y1="736.5" x2="180.7" y2="743.9"/>
	<line class="st0" x1="190.8" y1="736.2" x2="190.8" y2="743.9"/>
	<line class="st0" x1="200.7" y1="736.3" x2="200.7" y2="743.9"/>
	<line class="st0" x1="210.6" y1="736.1" x2="210.6" y2="743.7"/>
	<line class="st0" x1="220.6" y1="736.1" x2="220.5" y2="743.5"/>
	<line class="st0" x1="230.7" y1="736.2" x2="230.6" y2="743.5"/>
	<line class="st0" x1="240.5" y1="736.2" x2="240.4" y2="743.7"/>
	<line class="st0" x1="250.6" y1="736" x2="250.6" y2="743.6"/>
	<line class="st0" x1="260.6" y1="736.3" x2="260.6" y2="743.6"/>
	<line class="st0" x1="140.6" y1="736" x2="140.6" y2="744"/>
	<polygon class="st6" points="270.9,769.9 131.2,770.2 131.2,762.5 270.9,762.2 	"/>
	<polygon class="st0" points="270.9,769.9 131.2,770.2 131.2,762.5 270.9,762.2 	"/>
	<line class="st0" x1="131.2" y1="766.2" x2="270.8" y2="766"/>
	<line class="st0" x1="150.8" y1="762.2" x2="150.7" y2="770.1"/>
	<line class="st0" x1="160.9" y1="762" x2="160.8" y2="769.8"/>
	<line class="st0" x1="171" y1="762.5" x2="171" y2="769.7"/>
	<line class="st0" x1="181" y1="762.7" x2="181" y2="770"/>
	<line class="st0" x1="191" y1="762.3" x2="191" y2="770"/>
	<line class="st0" x1="200.9" y1="762.5" x2="200.9" y2="770"/>
	<line class="st0" x1="210.8" y1="762.2" x2="210.8" y2="769.8"/>
	<line class="st0" x1="220.8" y1="762.2" x2="220.7" y2="769.6"/>
	<line class="st0" x1="231" y1="762.3" x2="230.9" y2="769.6"/>
	<line class="st0" x1="240.8" y1="762.3" x2="240.7" y2="769.8"/>
	<line class="st0" x1="250.9" y1="762.1" x2="250.8" y2="769.7"/>
	<line class="st0" x1="260.8" y1="762.5" x2="260.8" y2="769.7"/>
	<line class="st0" x1="140.9" y1="762.2" x2="140.9" y2="770.2"/>
	<polygon class="st6" points="270.5,796.6 130.8,797 130.8,789.2 270.5,788.9 	"/>
	<polygon class="st0" points="270.5,796.6 130.8,797 130.8,789.2 270.5,788.9 	"/>
	<line class="st0" x1="130.8" y1="793" x2="270.5" y2="792.8"/>
	<line class="st0" x1="150.4" y1="788.9" x2="150.3" y2="796.9"/>
	<line class="st0" x1="160.6" y1="788.8" x2="160.4" y2="796.5"/>
	<line class="st0" x1="170.6" y1="789.2" x2="170.6" y2="796.5"/>
	<line class="st0" x1="180.6" y1="789.4" x2="180.6" y2="796.8"/>
	<line class="st0" x1="190.6" y1="789.1" x2="190.6" y2="796.8"/>
	<line class="st0" x1="200.5" y1="789.2" x2="200.5" y2="796.8"/>
	<line class="st0" x1="210.4" y1="789" x2="210.4" y2="796.5"/>
	<line class="st0" x1="220.4" y1="789" x2="220.3" y2="796.3"/>
	<line class="st0" x1="230.6" y1="789.1" x2="230.5" y2="796.3"/>
	<line class="st0" x1="240.4" y1="789.1" x2="240.3" y2="796.5"/>
	<line class="st0" x1="250.5" y1="788.9" x2="250.4" y2="796.5"/>
	<line class="st0" x1="260.4" y1="789.2" x2="260.4" y2="796.5"/>
	<line class="st0" x1="140.5" y1="788.9" x2="140.5" y2="796.9"/>
	<polygon class="st6" points="270.8,823.5 131.1,823.8 131.1,816.1 270.8,815.8 	"/>
	<polygon class="st0" points="270.8,823.5 131.1,823.8 131.1,816.1 270.8,815.8 	"/>
	<line class="st0" x1="131.1" y1="819.8" x2="270.7" y2="819.7"/>
	<line class="st0" x1="150.7" y1="815.8" x2="150.6" y2="823.7"/>
	<line class="st0" x1="160.8" y1="815.7" x2="160.7" y2="823.4"/>
	<line class="st0" x1="170.8" y1="816.1" x2="170.8" y2="823.3"/>
	<line class="st0" x1="180.9" y1="816.3" x2="180.9" y2="823.6"/>
	<line class="st0" x1="190.9" y1="816" x2="190.9" y2="823.6"/>
	<line class="st0" x1="200.8" y1="816.1" x2="200.8" y2="823.6"/>
	<line class="st0" x1="210.7" y1="815.9" x2="210.7" y2="823.4"/>
	<line class="st0" x1="220.7" y1="815.9" x2="220.6" y2="823.2"/>
	<line class="st0" x1="230.8" y1="816" x2="230.7" y2="823.2"/>
	<line class="st0" x1="240.6" y1="816" x2="240.5" y2="823.4"/>
	<line class="st0" x1="250.8" y1="815.8" x2="250.7" y2="823.3"/>
	<line class="st0" x1="260.7" y1="816.1" x2="260.7" y2="823.3"/>
	<line class="st0" x1="140.8" y1="815.8" x2="140.8" y2="823.8"/>
	<polygon class="st6" points="270.5,850.3 130.8,850.6 130.8,842.9 270.5,842.5 	"/>
	<polygon class="st0" points="270.5,850.3 130.8,850.6 130.8,842.9 270.5,842.5 	"/>
	<line class="st0" x1="130.8" y1="846.6" x2="270.4" y2="846.4"/>
	<line class="st0" x1="150.4" y1="842.5" x2="150.3" y2="850.5"/>
	<line class="st0" x1="160.5" y1="842.4" x2="160.4" y2="850.2"/>
	<line class="st0" x1="170.5" y1="842.8" x2="170.5" y2="850.1"/>
	<line class="st0" x1="180.6" y1="843" x2="180.6" y2="850.4"/>
	<line class="st0" x1="190.6" y1="842.7" x2="190.6" y2="850.4"/>
	<line class="st0" x1="200.5" y1="842.8" x2="200.5" y2="850.4"/>
	<line class="st0" x1="210.4" y1="842.6" x2="210.4" y2="850.2"/>
	<line class="st0" x1="220.4" y1="842.6" x2="220.3" y2="850"/>
	<line class="st0" x1="230.5" y1="842.7" x2="230.4" y2="850"/>
	<line class="st0" x1="240.3" y1="842.7" x2="240.2" y2="850.2"/>
	<line class="st0" x1="250.5" y1="842.5" x2="250.4" y2="850.1"/>
	<line class="st0" x1="260.4" y1="842.8" x2="260.4" y2="850.1"/>
	<line class="st0" x1="140.5" y1="842.6" x2="140.5" y2="850.6"/>
	<path class="st0" d="M87.4,580.9"/>
	<path class="st0" d="M-2.5,584.9"/>
	<path class="st0" d="M-2.5,577.5"/>
	<path class="st0" d="M-2.5,584.9"/>
	<path class="st0" d="M316.1,664.4"/>
	<line class="st0" x1="326.1" y1="656.7" x2="326.1" y2="664.2"/>
	<line class="st0" x1="336.1" y1="656.7" x2="336" y2="664"/>
	<line class="st0" x1="346.2" y1="656.8" x2="346.1" y2="664"/>
	<line class="st0" x1="356" y1="656.8" x2="355.9" y2="664.2"/>
	<line class="st0" x1="366.1" y1="656.6" x2="366" y2="664.1"/>
	<line class="st0" x1="376" y1="656.9" x2="376" y2="664.1"/>
	<polygon class="st6" points="386.1,664.3 316.3,664.5 316.3,656.8 386.1,656.6 	"/>
	<polygon class="st0" points="386.1,664.3 316.3,664.5 316.3,656.8 386.1,656.6 	"/>
	<line class="st0" x1="316.5" y1="660.5" x2="386.1" y2="660.5"/>
	<path class="st0" d="M316.1,656.9"/>
	<line class="st0" x1="326.1" y1="656.7" x2="326.1" y2="664.2"/>
	<line class="st0" x1="336.1" y1="656.7" x2="336" y2="664"/>
	<line class="st0" x1="346.2" y1="656.8" x2="346.1" y2="664"/>
	<line class="st0" x1="356" y1="656.8" x2="355.9" y2="664.2"/>
	<line class="st0" x1="366.1" y1="656.6" x2="366" y2="664.1"/>
	<line class="st0" x1="376" y1="656.9" x2="376" y2="664.1"/>
	<path class="st0" d="M316.1,656.9"/>
	<line class="st0" x1="326.1" y1="656.7" x2="326.1" y2="664.2"/>
	<line class="st0" x1="336.1" y1="656.7" x2="336" y2="664"/>
	<line class="st0" x1="346.2" y1="656.8" x2="346.1" y2="664"/>
	<line class="st0" x1="356" y1="656.8" x2="355.9" y2="664.2"/>
	<line class="st0" x1="366.1" y1="656.6" x2="366" y2="664.1"/>
	<line class="st0" x1="376" y1="656.9" x2="376" y2="664.1"/>
	<path class="st0" d="M316.1,690.8"/>
	<line class="st0" x1="326.1" y1="683" x2="326.1" y2="690.5"/>
	<line class="st0" x1="336.1" y1="683" x2="336" y2="690.3"/>
	<line class="st0" x1="346.2" y1="683.1" x2="346.1" y2="690.3"/>
	<line class="st0" x1="356" y1="683.1" x2="355.9" y2="690.5"/>
	<line class="st0" x1="366.1" y1="682.9" x2="366" y2="690.4"/>
	<line class="st0" x1="376" y1="683.2" x2="376" y2="690.4"/>
	<polygon class="st6" points="386.1,690.6 316.3,690.8 316.3,683 386.1,682.9 	"/>
	<polygon class="st0" points="386.1,690.6 316.3,690.8 316.3,683 386.1,682.9 	"/>
	<line class="st0" x1="316.5" y1="686.8" x2="386.1" y2="686.8"/>
	<path class="st0" d="M316.1,683.2"/>
	<line class="st0" x1="326.1" y1="683" x2="326.1" y2="690.5"/>
	<line class="st0" x1="336.1" y1="683" x2="336" y2="690.3"/>
	<line class="st0" x1="346.2" y1="683.1" x2="346.1" y2="690.3"/>
	<line class="st0" x1="356" y1="683.1" x2="355.9" y2="690.5"/>
	<line class="st0" x1="366.1" y1="682.9" x2="366" y2="690.4"/>
	<line class="st0" x1="376" y1="683.2" x2="376" y2="690.4"/>
	<path class="st0" d="M316.1,683.2"/>
	<line class="st0" x1="326.1" y1="683" x2="326.1" y2="690.5"/>
	<line class="st0" x1="336.1" y1="683" x2="336" y2="690.3"/>
	<line class="st0" x1="346.2" y1="683.1" x2="346.1" y2="690.3"/>
	<line class="st0" x1="356" y1="683.1" x2="355.9" y2="690.5"/>
	<line class="st0" x1="366.1" y1="682.9" x2="366" y2="690.4"/>
	<line class="st0" x1="376" y1="683.2" x2="376" y2="690.4"/>
	<path class="st0" d="M316.4,717.6"/>
	<line class="st0" x1="326.4" y1="709.8" x2="326.4" y2="717.4"/>
	<line class="st0" x1="336.4" y1="709.8" x2="336.3" y2="717.2"/>
	<line class="st0" x1="346.5" y1="709.9" x2="346.4" y2="717.2"/>
	<line class="st0" x1="356.3" y1="709.9" x2="356.2" y2="717.4"/>
	<line class="st0" x1="366.4" y1="709.7" x2="366.3" y2="717.3"/>
	<line class="st0" x1="376.3" y1="710" x2="376.3" y2="717.3"/>
	<polygon class="st6" points="386.2,717.5 316.6,717.6 316.6,709.9 386.2,709.7 	"/>
	<polygon class="st0" points="386.2,717.5 316.6,717.6 316.6,709.9 386.2,709.7 	"/>
	<line class="st0" x1="316.8" y1="713.6" x2="386.4" y2="713.6"/>
	<path class="st0" d="M316.4,710"/>
	<line class="st0" x1="326.4" y1="709.8" x2="326.4" y2="717.4"/>
	<line class="st0" x1="336.4" y1="709.8" x2="336.3" y2="717.2"/>
	<line class="st0" x1="346.5" y1="709.9" x2="346.4" y2="717.2"/>
	<line class="st0" x1="356.3" y1="709.9" x2="356.2" y2="717.4"/>
	<line class="st0" x1="366.4" y1="709.7" x2="366.3" y2="717.3"/>
	<line class="st0" x1="376.3" y1="710" x2="376.3" y2="717.3"/>
	<path class="st0" d="M316.4,710"/>
	<line class="st0" x1="326.4" y1="709.8" x2="326.4" y2="717.4"/>
	<line class="st0" x1="336.4" y1="709.8" x2="336.3" y2="717.2"/>
	<line class="st0" x1="346.5" y1="709.9" x2="346.4" y2="717.2"/>
	<line class="st0" x1="356.3" y1="709.9" x2="356.2" y2="717.4"/>
	<line class="st0" x1="366.4" y1="709.7" x2="366.3" y2="717.3"/>
	<line class="st0" x1="376.3" y1="710" x2="376.3" y2="717.3"/>
	<path class="st0" d="M316.4,744.3"/>
	<line class="st0" x1="326.4" y1="736.5" x2="326.4" y2="744.1"/>
	<line class="st0" x1="336.4" y1="736.5" x2="336.3" y2="743.9"/>
	<line class="st0" x1="346.5" y1="736.7" x2="346.4" y2="743.9"/>
	<line class="st0" x1="356.3" y1="736.7" x2="356.2" y2="744.1"/>
	<line class="st0" x1="366.4" y1="736.5" x2="366.3" y2="744"/>
	<line class="st0" x1="376.3" y1="736.8" x2="376.3" y2="744"/>
	<polygon class="st6" points="386.2,744.2 316.6,744.3 316.6,736.6 386.2,736.5 	"/>
	<polygon class="st0" points="386.2,744.2 316.6,744.3 316.6,736.6 386.2,736.5 	"/>
	<line class="st0" x1="316.8" y1="740.3" x2="386.2" y2="740.3"/>
	<path class="st0" d="M316.4,736.8"/>
	<line class="st0" x1="326.4" y1="736.5" x2="326.4" y2="744.1"/>
	<line class="st0" x1="336.4" y1="736.5" x2="336.3" y2="743.9"/>
	<line class="st0" x1="346.5" y1="736.7" x2="346.4" y2="743.9"/>
	<line class="st0" x1="356.3" y1="736.7" x2="356.2" y2="744.1"/>
	<line class="st0" x1="366.4" y1="736.5" x2="366.3" y2="744"/>
	<line class="st0" x1="376.3" y1="736.8" x2="376.3" y2="744"/>
	<path class="st0" d="M316.4,736.8"/>
	<line class="st0" x1="326.4" y1="736.5" x2="326.4" y2="744.1"/>
	<line class="st0" x1="336.4" y1="736.5" x2="336.3" y2="743.9"/>
	<line class="st0" x1="346.5" y1="736.7" x2="346.4" y2="743.9"/>
	<line class="st0" x1="356.3" y1="736.7" x2="356.2" y2="744.1"/>
	<line class="st0" x1="366.4" y1="736.5" x2="366.3" y2="744"/>
	<line class="st0" x1="376.3" y1="736.8" x2="376.3" y2="744"/>
	<path class="st0" d="M316,770.6"/>
	<line class="st0" x1="325.9" y1="762.8" x2="325.9" y2="770.4"/>
	<line class="st0" x1="335.9" y1="762.8" x2="335.8" y2="770.2"/>
	<line class="st0" x1="346" y1="763" x2="345.9" y2="770.2"/>
	<line class="st0" x1="355.9" y1="763" x2="355.8" y2="770.4"/>
	<line class="st0" x1="366" y1="762.8" x2="365.9" y2="770.3"/>
	<line class="st0" x1="375.9" y1="763" x2="375.9" y2="770.3"/>
	<polygon class="st6" points="386,770.5 316.2,770.6 316.2,762.9 386,762.8 	"/>
	<polygon class="st0" points="386,770.5 316.2,770.6 316.2,762.9 386,762.8 	"/>
	<line class="st0" x1="316.4" y1="766.6" x2="385.9" y2="766.7"/>
	<path class="st0" d="M316,763.1"/>
	<line class="st0" x1="325.9" y1="762.8" x2="325.9" y2="770.4"/>
	<line class="st0" x1="335.9" y1="762.8" x2="335.8" y2="770.2"/>
	<line class="st0" x1="346" y1="763" x2="345.9" y2="770.2"/>
	<line class="st0" x1="355.9" y1="763" x2="355.8" y2="770.4"/>
	<line class="st0" x1="366" y1="762.8" x2="365.9" y2="770.3"/>
	<line class="st0" x1="375.9" y1="763" x2="375.9" y2="770.3"/>
	<path class="st0" d="M316,763.1"/>
	<line class="st0" x1="325.9" y1="762.8" x2="325.9" y2="770.4"/>
	<line class="st0" x1="335.9" y1="762.8" x2="335.8" y2="770.2"/>
	<line class="st0" x1="346" y1="763" x2="345.9" y2="770.2"/>
	<line class="st0" x1="355.9" y1="763" x2="355.8" y2="770.4"/>
	<line class="st0" x1="366" y1="762.8" x2="365.9" y2="770.3"/>
	<line class="st0" x1="375.9" y1="763" x2="375.9" y2="770.3"/>
	<path class="st0" d="M316.1,797.6"/>
	<line class="st0" x1="326.1" y1="789.9" x2="326.1" y2="797.4"/>
	<line class="st0" x1="336.1" y1="789.9" x2="336" y2="797.2"/>
	<line class="st0" x1="346.2" y1="790" x2="346.1" y2="797.2"/>
	<line class="st0" x1="356" y1="790" x2="355.9" y2="797.4"/>
	<line class="st0" x1="366.1" y1="789.8" x2="366" y2="797.3"/>
	<line class="st0" x1="376" y1="790.1" x2="376" y2="797.3"/>
	<polygon class="st6" points="386.1,797.5 316.3,797.7 316.3,789.9 386.1,789.8 	"/>
	<polygon class="st0" points="386.1,797.5 316.3,797.7 316.3,789.9 386.1,789.8 	"/>
	<line class="st0" x1="316.5" y1="793.7" x2="386.1" y2="793.7"/>
	<path class="st0" d="M316.1,790.1"/>
	<line class="st0" x1="326.1" y1="789.9" x2="326.1" y2="797.4"/>
	<line class="st0" x1="336.1" y1="789.9" x2="336" y2="797.2"/>
	<line class="st0" x1="346.2" y1="790" x2="346.1" y2="797.2"/>
	<line class="st0" x1="356" y1="790" x2="355.9" y2="797.4"/>
	<line class="st0" x1="366.1" y1="789.8" x2="366" y2="797.3"/>
	<line class="st0" x1="376" y1="790.1" x2="376" y2="797.3"/>
	<path class="st0" d="M316.1,790.1"/>
	<line class="st0" x1="326.1" y1="789.9" x2="326.1" y2="797.4"/>
	<line class="st0" x1="336.1" y1="789.9" x2="336" y2="797.2"/>
	<line class="st0" x1="346.2" y1="790" x2="346.1" y2="797.2"/>
	<line class="st0" x1="356" y1="790" x2="355.9" y2="797.4"/>
	<line class="st0" x1="366.1" y1="789.8" x2="366" y2="797.3"/>
	<line class="st0" x1="376" y1="790.1" x2="376" y2="797.3"/>
	<path class="st0" d="M316.1,823.9"/>
	<line class="st0" x1="326.1" y1="816.2" x2="326.1" y2="823.7"/>
	<line class="st0" x1="336.1" y1="816.2" x2="336" y2="823.5"/>
	<line class="st0" x1="346.2" y1="816.3" x2="346.1" y2="823.5"/>
	<line class="st0" x1="356" y1="816.3" x2="355.9" y2="823.7"/>
	<line class="st0" x1="366.1" y1="816.1" x2="366" y2="823.6"/>
	<line class="st0" x1="376" y1="816.4" x2="376" y2="823.6"/>
	<polygon class="st6" points="386.1,823.8 316.3,824 316.3,816.2 386.1,816.1 	"/>
	<polygon class="st0" points="386.1,823.8 316.3,824 316.3,816.2 386.1,816.1 	"/>
	<line class="st0" x1="316.5" y1="819.9" x2="386.1" y2="820"/>
	<path class="st0" d="M316.1,816.3"/>
	<line class="st0" x1="326.1" y1="816.2" x2="326.1" y2="823.7"/>
	<line class="st0" x1="336.1" y1="816.2" x2="336" y2="823.5"/>
	<line class="st0" x1="346.2" y1="816.3" x2="346.1" y2="823.5"/>
	<line class="st0" x1="356" y1="816.3" x2="355.9" y2="823.7"/>
	<line class="st0" x1="366.1" y1="816.1" x2="366" y2="823.6"/>
	<line class="st0" x1="376" y1="816.4" x2="376" y2="823.6"/>
	<path class="st0" d="M316.1,816.3"/>
	<line class="st0" x1="326.1" y1="816.2" x2="326.1" y2="823.7"/>
	<line class="st0" x1="336.1" y1="816.2" x2="336" y2="823.5"/>
	<line class="st0" x1="346.2" y1="816.3" x2="346.1" y2="823.5"/>
	<line class="st0" x1="356" y1="816.3" x2="355.9" y2="823.7"/>
	<line class="st0" x1="366.1" y1="816.1" x2="366" y2="823.6"/>
	<line class="st0" x1="376" y1="816.4" x2="376" y2="823.6"/>
	<path class="st0" d="M316.6,850.2"/>
	<line class="st0" x1="326.5" y1="842.5" x2="326.5" y2="850"/>
	<line class="st0" x1="336.5" y1="842.5" x2="336.4" y2="849.8"/>
	<line class="st0" x1="346.7" y1="842.6" x2="346.6" y2="849.8"/>
	<line class="st0" x1="356.5" y1="842.6" x2="356.4" y2="850"/>
	<line class="st0" x1="366.6" y1="842.3" x2="366.5" y2="849.9"/>
	<line class="st0" x1="376.5" y1="842.7" x2="376.5" y2="849.9"/>
	<polygon class="st6" points="386.2,850.2 316.8,850.2 316.8,842.5 386.2,842.4 	"/>
	<polygon class="st0" points="386.2,850.2 316.8,850.2 316.8,842.5 386.2,842.4 	"/>
	<line class="st0" x1="317" y1="846.2" x2="386.5" y2="846.3"/>
	<path class="st0" d="M316.6,842.7"/>
	<line class="st0" x1="326.5" y1="842.5" x2="326.5" y2="850"/>
	<line class="st0" x1="336.5" y1="842.5" x2="336.4" y2="849.8"/>
	<line class="st0" x1="346.7" y1="842.6" x2="346.6" y2="849.8"/>
	<line class="st0" x1="356.5" y1="842.6" x2="356.4" y2="850"/>
	<line class="st0" x1="366.6" y1="842.3" x2="366.5" y2="849.9"/>
	<line class="st0" x1="376.5" y1="842.7" x2="376.5" y2="849.9"/>
	<path class="st0" d="M316.6,842.7"/>
	<line class="st0" x1="326.5" y1="842.5" x2="326.5" y2="850"/>
	<line class="st0" x1="336.5" y1="842.5" x2="336.4" y2="849.8"/>
	<line class="st0" x1="346.7" y1="842.6" x2="346.6" y2="849.8"/>
	<line class="st0" x1="356.5" y1="842.6" x2="356.4" y2="850"/>
	<line class="st0" x1="366.6" y1="842.3" x2="366.5" y2="849.9"/>
	<line class="st0" x1="376.5" y1="842.7" x2="376.5" y2="849.9"/>
	<rect x="0.6" y="657.7" class="st6" width="89.8" height="7.7"/>
	<rect x="0.6" y="657.7" class="st0" width="89.8" height="7.7"/>
	<line class="st0" x1="0.6" y1="661.4" x2="89.8" y2="661.5"/>
	<line class="st0" x1="20.2" y1="657.3" x2="20.1" y2="665.3"/>
	<line class="st0" x1="30.3" y1="657.2" x2="30.2" y2="665"/>
	<line class="st0" x1="40.3" y1="657.6" x2="40.3" y2="664.9"/>
	<line class="st0" x1="50.3" y1="657.8" x2="50.3" y2="665.2"/>
	<line class="st0" x1="60.3" y1="657.5" x2="60.3" y2="665.2"/>
	<line class="st0" x1="70.3" y1="657.6" x2="70.3" y2="665.2"/>
	<line class="st0" x1="80.2" y1="657.4" x2="80.2" y2="665"/>
	<line class="st0" x1="90.2" y1="657.4" x2="90.1" y2="664.8"/>
	<line class="st0" x1="10.2" y1="657.4" x2="10.2" y2="665.3"/>
	<rect x="0.6" y="683.1" class="st6" width="89.8" height="7.7"/>
	<rect x="0.6" y="683.1" class="st0" width="89.8" height="7.7"/>
	<line class="st0" x1="0.6" y1="686.8" x2="89.8" y2="687"/>
	<line class="st0" x1="20.2" y1="682.8" x2="20.1" y2="690.8"/>
	<line class="st0" x1="30.3" y1="682.7" x2="30.2" y2="690.4"/>
	<line class="st0" x1="40.3" y1="683.1" x2="40.3" y2="690.3"/>
	<line class="st0" x1="50.3" y1="683.3" x2="50.3" y2="690.6"/>
	<line class="st0" x1="60.4" y1="683" x2="60.4" y2="690.6"/>
	<line class="st0" x1="70.3" y1="683.1" x2="70.3" y2="690.6"/>
	<line class="st0" x1="80.2" y1="682.9" x2="80.2" y2="690.4"/>
	<line class="st0" x1="90.2" y1="682.9" x2="90.1" y2="690.2"/>
	<line class="st0" x1="10.3" y1="682.8" x2="10.3" y2="690.8"/>
	<rect x="0.9" y="709.9" class="st6" width="89.8" height="7.7"/>
	<rect x="0.9" y="709.9" class="st0" width="89.8" height="7.7"/>
	<line class="st0" x1="0.9" y1="713.7" x2="90.1" y2="713.8"/>
	<line class="st0" x1="20.5" y1="709.6" x2="20.4" y2="717.6"/>
	<line class="st0" x1="30.6" y1="709.5" x2="30.5" y2="717.3"/>
	<line class="st0" x1="40.7" y1="709.9" x2="40.7" y2="717.2"/>
	<line class="st0" x1="50.7" y1="710.1" x2="50.7" y2="717.5"/>
	<line class="st0" x1="60.7" y1="709.8" x2="60.7" y2="717.5"/>
	<line class="st0" x1="70.6" y1="709.9" x2="70.6" y2="717.5"/>
	<line class="st0" x1="80.5" y1="709.7" x2="80.5" y2="717.3"/>
	<line class="st0" x1="90.5" y1="709.7" x2="90.4" y2="717.1"/>
	<line class="st0" x1="10.6" y1="709.7" x2="10.6" y2="717.6"/>
	<rect x="0.6" y="735.7" class="st6" width="89.8" height="7.7"/>
	<rect x="0.6" y="735.7" class="st0" width="89.8" height="7.7"/>
	<line class="st0" x1="0.6" y1="739.5" x2="89.8" y2="739.6"/>
	<line class="st0" x1="20.2" y1="735.4" x2="20.1" y2="743.4"/>
	<line class="st0" x1="30.3" y1="735.3" x2="30.2" y2="743.1"/>
	<line class="st0" x1="40.3" y1="735.7" x2="40.3" y2="743"/>
	<line class="st0" x1="50.3" y1="735.9" x2="50.3" y2="743.3"/>
	<line class="st0" x1="60.4" y1="735.6" x2="60.4" y2="743.3"/>
	<line class="st0" x1="70.3" y1="735.7" x2="70.3" y2="743.3"/>
	<line class="st0" x1="80.2" y1="735.5" x2="80.2" y2="743.1"/>
	<line class="st0" x1="90.2" y1="735.5" x2="90.1" y2="742.9"/>
	<line class="st0" x1="10.3" y1="735.5" x2="10.3" y2="743.4"/>
	<rect x="1.1" y="763.2" class="st6" width="89.8" height="7.7"/>
	<rect x="1.1" y="763.2" class="st0" width="89.8" height="7.7"/>
	<line class="st0" x1="1.1" y1="766.9" x2="90.3" y2="767"/>
	<line class="st0" x1="20.7" y1="762.9" x2="20.6" y2="770.8"/>
	<line class="st0" x1="30.9" y1="762.8" x2="30.7" y2="770.5"/>
	<line class="st0" x1="40.9" y1="763.2" x2="40.9" y2="770.4"/>
	<line class="st0" x1="50.9" y1="763.4" x2="50.9" y2="770.7"/>
	<line class="st0" x1="60.9" y1="763.1" x2="60.9" y2="770.7"/>
	<line class="st0" x1="70.8" y1="763.2" x2="70.8" y2="770.7"/>
	<line class="st0" x1="80.7" y1="763" x2="80.7" y2="770.5"/>
	<line class="st0" x1="90.7" y1="763" x2="90.6" y2="770.3"/>
	<line class="st0" x1="10.8" y1="762.9" x2="10.8" y2="770.9"/>
	<rect x="1.1" y="789.5" class="st6" width="89.8" height="7.7"/>
	<rect x="1.1" y="789.5" class="st0" width="89.8" height="7.7"/>
	<line class="st0" x1="1.1" y1="793.3" x2="90.3" y2="793.4"/>
	<line class="st0" x1="20.7" y1="789.2" x2="20.6" y2="797.2"/>
	<line class="st0" x1="30.9" y1="789.1" x2="30.7" y2="796.9"/>
	<line class="st0" x1="40.9" y1="789.5" x2="40.9" y2="796.8"/>
	<line class="st0" x1="50.9" y1="789.7" x2="50.9" y2="797.1"/>
	<line class="st0" x1="60.9" y1="789.4" x2="60.9" y2="797.1"/>
	<line class="st0" x1="70.8" y1="789.5" x2="70.8" y2="797.1"/>
	<line class="st0" x1="80.7" y1="789.3" x2="80.7" y2="796.9"/>
	<line class="st0" x1="90.7" y1="789.3" x2="90.6" y2="796.7"/>
	<line class="st0" x1="10.8" y1="789.2" x2="10.8" y2="797.2"/>
	<rect x="1.1" y="816.5" class="st6" width="89.8" height="7.7"/>
	<rect x="1.1" y="816.5" class="st0" width="89.8" height="7.7"/>
	<line class="st0" x1="1.1" y1="820.2" x2="90.3" y2="820.3"/>
	<line class="st0" x1="20.7" y1="816.2" x2="20.6" y2="824.1"/>
	<line class="st0" x1="30.9" y1="816" x2="30.7" y2="823.8"/>
	<line class="st0" x1="40.9" y1="816.5" x2="40.9" y2="823.7"/>
	<line class="st0" x1="50.9" y1="816.7" x2="50.9" y2="824"/>
	<line class="st0" x1="60.9" y1="816.4" x2="60.9" y2="824"/>
	<line class="st0" x1="70.8" y1="816.5" x2="70.8" y2="824"/>
	<line class="st0" x1="80.7" y1="816.2" x2="80.7" y2="823.8"/>
	<line class="st0" x1="90.7" y1="816.2" x2="90.6" y2="823.6"/>
	<line class="st0" x1="10.8" y1="816.2" x2="10.8" y2="824.2"/>
	<rect x="1.1" y="843.5" class="st6" width="89.8" height="7.7"/>
	<rect x="1.1" y="843.5" class="st0" width="89.8" height="7.7"/>
	<line class="st0" x1="1.1" y1="847.2" x2="90.3" y2="847.3"/>
	<line class="st0" x1="20.7" y1="843.1" x2="20.6" y2="851.1"/>
	<line class="st0" x1="30.9" y1="843" x2="30.7" y2="850.8"/>
	<line class="st0" x1="40.9" y1="843.4" x2="40.9" y2="850.7"/>
	<line class="st0" x1="50.9" y1="843.6" x2="50.9" y2="851"/>
	<line class="st0" x1="60.9" y1="843.3" x2="60.9" y2="851"/>
	<line class="st0" x1="70.8" y1="843.4" x2="70.8" y2="851"/>
	<line class="st0" x1="80.7" y1="843.2" x2="80.7" y2="850.8"/>
	<line class="st0" x1="90.7" y1="843.2" x2="90.6" y2="850.6"/>
	<line class="st0" x1="10.8" y1="843.2" x2="10.8" y2="851.2"/>
	<rect x="1.1" y="869.1" class="st6" width="89.8" height="7.7"/>
	<rect x="1.1" y="869.1" class="st0" width="89.8" height="7.7"/>
	<line class="st0" x1="1.1" y1="872.9" x2="90.3" y2="873"/>
	<line class="st0" x1="20.7" y1="868.8" x2="20.6" y2="876.8"/>
	<line class="st0" x1="30.9" y1="868.7" x2="30.7" y2="876.5"/>
	<line class="st0" x1="40.9" y1="869.1" x2="40.9" y2="876.4"/>
	<line class="st0" x1="50.9" y1="869.3" x2="50.9" y2="876.7"/>
	<line class="st0" x1="60.9" y1="869" x2="60.9" y2="876.7"/>
	<line class="st0" x1="70.8" y1="869.1" x2="70.8" y2="876.7"/>
	<line class="st0" x1="80.7" y1="868.9" x2="80.7" y2="876.5"/>
	<line class="st0" x1="90.7" y1="868.9" x2="90.6" y2="876.2"/>
	<line class="st0" x1="10.8" y1="868.8" x2="10.8" y2="876.8"/>
	<polygon class="st6" points="198,17.3 128.2,17.4 128.2,9.7 198,9.5 	"/>
	<polygon class="st0" points="198,17.3 128.2,17.4 128.2,9.7 198,9.5 	"/>
	<line class="st0" x1="128.2" y1="13.4" x2="198" y2="13.5"/>
	<line class="st0" x1="147.8" y1="9.4" x2="147.7" y2="17.3"/>
	<line class="st0" x1="157.9" y1="9.9" x2="157.8" y2="17"/>
	<line class="st0" x1="168" y1="9.7" x2="168" y2="17.6"/>
	<line class="st0" x1="178" y1="9.9" x2="178" y2="17.2"/>
	<line class="st0" x1="188" y1="9.6" x2="188" y2="17.2"/>
	<path class="st0" d="M190.6,4.3"/>
	<line class="st0" x1="137.9" y1="9.4" x2="137.9" y2="17.4"/>
	<polygon class="st5" points="386.3,609.8 363,609.8 363,592.4 386.3,592.4 	"/>
	<polygon class="st6" points="198.2,40.3 128.3,40.5 128.3,32.8 198.2,32.6 	"/>
	<polygon class="st0" points="198.2,40.3 128.3,40.5 128.3,32.8 198.2,32.6 	"/>
	<line class="st0" x1="128.3" y1="36.5" x2="198.1" y2="36.6"/>
	<line class="st0" x1="148" y1="32.4" x2="147.9" y2="40.4"/>
	<line class="st0" x1="158" y1="33" x2="158" y2="40.1"/>
	<line class="st0" x1="168.1" y1="32.7" x2="168.2" y2="40.6"/>
	<line class="st0" x1="178.1" y1="32.9" x2="178.1" y2="40.3"/>
	<line class="st0" x1="188.1" y1="32.6" x2="188.1" y2="40.3"/>
	<line class="st0" x1="138" y1="32.5" x2="138" y2="40.5"/>
	<polygon class="st6" points="198.7,145.4 128.9,145.6 128.9,137.8 198.7,137.6 	"/>
	<polygon class="st0" points="198.7,145.4 128.9,145.6 128.9,137.8 198.7,137.6 	"/>
	<line class="st0" x1="128.9" y1="141.5" x2="198.6" y2="141.6"/>
	<line class="st0" x1="148.5" y1="137.5" x2="148.4" y2="145.4"/>
	<line class="st0" x1="158.6" y1="138" x2="158.5" y2="145.1"/>
	<line class="st0" x1="168.6" y1="137.8" x2="168.7" y2="145.7"/>
	<line class="st0" x1="178.7" y1="138" x2="178.7" y2="145.3"/>
	<line class="st0" x1="188.7" y1="137.7" x2="188.7" y2="145.3"/>
	<line class="st0" x1="138.6" y1="137.5" x2="138.6" y2="145.5"/>
	<polygon class="st6" points="198.1,168.6 128.2,168.8 128.2,161.1 198.1,160.9 	"/>
	<polygon class="st0" points="198.1,168.6 128.2,168.8 128.2,161.1 198.1,160.9 	"/>
	<line class="st0" x1="128.2" y1="164.8" x2="198" y2="164.9"/>
	<line class="st0" x1="147.9" y1="160.7" x2="147.8" y2="168.7"/>
	<line class="st0" x1="157.9" y1="161.3" x2="157.9" y2="168.4"/>
	<line class="st0" x1="168" y1="161" x2="168.1" y2="168.9"/>
	<line class="st0" x1="178" y1="161.2" x2="178" y2="168.6"/>
	<line class="st0" x1="188" y1="160.9" x2="188" y2="168.6"/>
	<line class="st0" x1="137.9" y1="160.8" x2="137.9" y2="168.8"/>
</g>
<g id="Underlined_Squares">
	<line class="st8" x1="465" y1="366.4" x2="476.2" y2="366.4"/>
	<line class="st8" x1="176.9" y1="74.2" x2="188.1" y2="74.1"/>
	<rect x="177.6" y="61" class="st0" width="10.1" height="10.3"/>
	<line class="st8" x1="444.2" y1="466.3" x2="455.4" y2="466.3"/>
	<rect x="444.8" y="453.1" class="st0" width="10.1" height="10.3"/>
	<line class="st8" x1="131.8" y1="61.6" x2="143" y2="61.6"/>
	<rect x="132.4" y="48.4" class="st0" width="10.1" height="10.3"/>
	<line class="st8" x1="134.2" y1="118.4" x2="145.5" y2="118.4"/>
	<rect x="134.9" y="105.2" class="st0" width="10.1" height="10.3"/>
	<line class="st8" x1="139.4" y1="400.7" x2="150.6" y2="400.7"/>
	<rect x="140.1" y="387.5" class="st0" width="10.1" height="10.3"/>
	<line class="st8" x1="140.4" y1="428.7" x2="151.6" y2="428.7"/>
	<rect x="141" y="415.5" class="st0" width="10.1" height="10.3"/>
	<line class="st8" x1="315.5" y1="388.7" x2="326.8" y2="388.7"/>
	<rect x="316.2" y="375.5" class="st0" width="10.1" height="10.3"/>
	<line class="st8" x1="147.4" y1="376.7" x2="158.6" y2="376.7"/>
	<rect x="148.1" y="363.5" class="st0" width="10.1" height="10.3"/>
	<line class="st8" x1="372.2" y1="413.8" x2="383.4" y2="413.8"/>
	<rect x="372.8" y="400.7" class="st0" width="10.1" height="10.3"/>
	<line class="st8" x1="343.1" y1="415.5" x2="354.4" y2="415.5"/>
	<rect x="343.8" y="402.3" class="st0" width="10.1" height="10.3"/>
	<line class="st8" x1="41.7" y1="787.2" x2="52.9" y2="787.2"/>
	<rect x="42.3" y="774" class="st0" width="10.1" height="10.3"/>
	<line class="st8" x1="195" y1="786.5" x2="206.2" y2="786.5"/>
	<rect x="195.6" y="773.3" class="st0" width="10.1" height="10.3"/>
	<line class="st8" x1="347.4" y1="787.5" x2="358.6" y2="787.5"/>
	<rect x="348" y="774.3" class="st0" width="10.1" height="10.3"/>
	<line class="st9" x1="535.3" y1="33.1" x2="562.3" y2="33.1"/>
	<rect x="536.9" y="1.5" class="st9" width="24.3" height="24.7"/>
</g>
<rect x="465.7" y="353.3" class="st0" width="10.1" height="10.3"/>
<g id="Layer_10">
	<rect x="536.5" y="53" class="st2" width="27.4" height="27.4"/>
	<rect x="537" y="106.5" class="st1" width="27.4" height="27.4"/>
	<rect x="537.1" y="160.2" class="st5" width="27.4" height="27.4"/>
</g>
<text transform="matrix(1 0 0 1 89.05 218.3)" class="st10 st11" style="text-decoration: underline;">D</text>
<text transform="matrix(1 0 0 1 96.02 218.3)" class="st10 st11" style="text-decoration: underline;">AT</text>
<text transform="matrix(1 0 0 1 108.25 218.3)" class="st10 st11" style="text-decoration: underline;">A LAB</text>
<text transform="matrix(1 0 0 1 94.53 230.81)" class="st10 st11" style="text-decoration: underline;"> </text>
<text transform="matrix(1 0 0 1 96.32 230.81)" class="st10 st11" style="text-decoration: underline;">AC 260</text>
<text transform="matrix(1 0 0 1 71.44 24.36)" class="st10 st11" style="text-decoration: underline;">AC 255</text>
<text transform="matrix(1 0 0 1 68.83 57.67)" class="st10 st11" style="text-decoration: underline;">AC 256</text>
<text transform="matrix(1 0 0 1 70.13 123.65)" class="st10 st11" style="text-decoration: underline;">AC 257</text>
<text transform="matrix(1 0 0 1 224.31 24.36)" class="st10 st11" style="text-decoration: underline;">AC 254</text>
<text transform="matrix(1 0 0 1 209.2 118.64)" class="st10 st11" style="text-decoration: underline;">AC252</text>
<text transform="matrix(1 0 0 1 223 130.81)" class="st10 st11" style="text-decoration: underline;">A</text>
<text transform="matrix(1 0 0 1 244.2 118.38)" class="st10 st11" style="text-decoration: underline;">AC252</text>
<text transform="matrix(1 0 0 1 244.2 151.72)" class="st10 st11" style="text-decoration: underline;">AC251</text>
<text transform="matrix(1 0 0 1 209.84 151.65)" class="st10 st11" style="text-decoration: underline;">AC251</text>
<text transform="matrix(1 0 0 1 222.27 162.98)" class="st10 st11" style="text-decoration: underline;">A</text>
<text transform="matrix(1 0 0 1 209.54 53.33)" class="st10 st11" style="text-decoration: underline;">AC253</text>
<text transform="matrix(1 0 0 1 222.35 64.09)" class="st10 st11" style="text-decoration: underline;">A</text>
<text transform="matrix(1 0 0 1 243.87 53.33)" class="st10 st11" style="text-decoration: underline;">AC253</text>
<text transform="matrix(1 0 0 1 400.65 494.34)" class="st10 st11" style="text-decoration: underline;">MAKERSPACE</text>
<text transform="matrix(1 0 0 1 412.31 508.91)" class="st10 st11" style="text-decoration: underline;">AC 280</text>
<text transform="matrix(1 0 0 1 446.42 508.91)" class="st10 st11" style="text-decoration: underline;"> </text>
<text transform="matrix(1 0 0 1 448.2 508.91)" class="st10 st11" style="text-decoration: underline;">A</text>
<text transform="matrix(1 0 0 1 202.58 255.48)" class="st10 st11" style="text-decoration: underline;">INFO COMMONS</text>
<text transform="matrix(1 0 0 1 392.93 579.17)" class="st10 st11" style="text-decoration: underline;">AC 286</text>
<text transform="matrix(1 0 0 1 427.03 579.17)" class="st10 st11" style="text-decoration: underline;"> </text>
<text transform="matrix(1 0 0 1 428.82 579.17)" class="st10 st11" style="text-decoration: underline;">A</text>
<text transform="matrix(6.123234e-17 -1 1 6.123234e-17 427.85 432.4697)" class="st10 st11" style="text-decoration: underline;">INFO DESK</text>
<text transform="matrix(1 0 0 1 459.75 398.17)" class="st10 st11">MAIN </text>
<text transform="matrix(1 0 0 1 445.24 410.49)" class="st10 st11">ENTRANCE</text>
<text transform="matrix(1 0 0 1 35.21 599.91)" class="st10 st11">AC 270</text>
<text transform="matrix(1 0 0 1 184.98 558.65)" class="st10 st11">AC 275</text>
<text transform="matrix(1 0 0 1 306.42 543.56)" class="st10 st12">AC 287</text>
<text transform="matrix(1 0 0 1 314.88 500.37)" class="st10 st11">AC 280</text>
<text transform="matrix(1 0 0 1 167.77 461.5)" class="st10 st11" style="text-decoration: underline;">STUDY CARRELS</text>
<text transform="matrix(1 0 0 1 192.26 408.05)" class="st10 st11" style="text-decoration: underline;">NOOK</text>
<text transform="matrix(1 0 0 1 306.45 598.5)" class="st10 st12">AC 288</text>
<text transform="matrix(1 0 0 1 336.38 543.5)" class="st10 st12">AC 281</text>
<text transform="matrix(1 0 0 1 336.18 598.86)" class="st10 st12">AC 286</text>
<text transform="matrix(1 0 0 1 78.69 425.74)" class="st10 st12">AC265</text>
<text transform="matrix(1 0 0 1 78.69 394.38)" class="st10 st12">AC263</text>
<text transform="matrix(6.123234e-17 -1 1 6.123234e-17 67.73 419.9697)" class="st10 st12">AC 264</text>
<text transform="matrix(1 0 0 1 312.37 300.65)" class="st10 st13">W</text>
<text transform="matrix(1 0 0 1 319.47 300.65)" class="st10 st13">ASHROOM</text>
<text transform="matrix(1 0 0 1 579.66 180.5)" class="st10 st14">OFFICE SPACE</text>
<text transform="matrix(1 0 0 1 581.07 126.8)" class="st10 st14">QUIET STUDY</text>
<text transform="matrix(1 0 0 1 580.66 73.35)" class="st10 st14">GROUP STUDY ROOMS</text>
<text transform="matrix(1 0 0 1 130.3 490.58)" class="st10 st11">AC 276</text>
<text transform="matrix(1 0 0 1 240.27 490.58)" class="st10 st11">AC 278</text>
<text transform="matrix(1 0 0 1 580.15 19.97)" class="st10 st14">POP -UPS</text>
<text transform="matrix(1 0 0 1 69.1 157.63)" class="st10 st11" style="text-decoration: underline;">AC258</text>
<image style="overflow:visible;enable-background:new    ;" width="2000" height="1970" xlink:href="1F7D743A2663D262.png"  transform="matrix(1.000000e-02 0 0 1.000000e-02 309.65 397.58)">
</image>
<image style="overflow:visible;enable-background:new    ;" width="512" height="512" xlink:href="1F7D743A2663D265.png"  transform="matrix(4.000000e-02 0 0 4.000000e-02 359.39 325.37)">
</image>
<text transform="matrix(1 0 0 1 367.39 551.74)" class="st10 st11" style="text-decoration: underline;">INSTRUCTIONAL LAB</text>
<text transform="matrix(1 0 0 1 377.39 564.24)" class="st10 st11" style="text-decoration: underline;"> &amp; STUDY SPACE</text>
</svg>
