<?xml version="1.0" encoding="utf-8"?>
<!-- Generator: Adobe Illustrator 24.0.1, SVG Export Plug-In . SVG Version: 6.00 Build 0)  -->
<svg version="1.1" id="Main_Frame" xmlns="http://www.w3.org/2000/svg" xmlns:xlink="http://www.w3.org/1999/xlink" x="0px" y="0px"
	 viewBox="0 0 940.1 572.2" style="enable-background:new 0 0 940.1 572.2;" xml:space="preserve">
<style type="text/css">
	.st0{fill:none;stroke:#000000;stroke-miterlimit:10;}
	.st1{fill:#F0F1F1;}
	.st2{fill:#A3E4F5;stroke:#000000;stroke-miterlimit:10;}
	.st3{fill:#F99696;stroke:#000000;stroke-miterlimit:10;}
	.st4{fill:#F0F1F1;stroke:#000000;stroke-miterlimit:10;}
	.st5{fill:#A4DCE5;}
	.st6{fill:#A3E4F5;}
	.st7{fill:none;stroke:#000000;stroke-width:3;stroke-miterlimit:10;}
	.st8{font-family:'DevanagariSangamMN-Bold';}
	.st9{font-size:17.06px;}
	.st10{fill:#FFFFFF;}
	.st11{font-family:'ArialMT';}
	.st12{font-size:10.41px;}
	.st13{font-size:11.15px;}
	.st14{fill:none;stroke:#000000;stroke-width:1.5;stroke-miterlimit:10;}
	.st15{font-size:10.6px;}
</style>
<title>2nd Floor March 23</title>
<line class="st0" x1="47.7" y1="94.2" x2="47.6" y2="404.3"/>
<line class="st0" x1="47.6" y1="515.2" x2="0.4" y2="571.7"/>
<line class="st0" x1="0.4" y1="571.7" x2="607" y2="571.6"/>
<rect x="333.4" y="294" class="st1" width="279" height="83"/>
<line class="st0" x1="655" y1="387.1" x2="655" y2="279.6"/>
<line class="st0" x1="655.4" y1="197.5" x2="334.4" y2="197.5"/>
<line class="st0" x1="334.5" y1="197.4" x2="334.6" y2="94.1"/>
<polygon class="st2" points="576,566 459,566 457.8,380.5 574.7,380.5 "/>
<rect x="47.9" y="0.5" class="st3" width="250" height="94"/>
<rect x="334.9" y="197.5" class="st0" width="75" height="84"/>
<polygon class="st2" points="655.3,365.8 603.9,365.7 603.9,303.6 655.3,303.7 "/>
<line class="st0" x1="334.4" y1="94.5" x2="297.3" y2="94.5"/>
<path class="st0" d="M117.9,364.2"/>
<polyline class="st0" points="48.4,94.5 119.9,94.5 119.9,116.5 48.4,116.5 "/>
<line class="st0" x1="117.2" y1="281.5" x2="117.1" y2="303.6"/>
<path class="st0" d="M172.5,186.5"/>
<path class="st0" d="M172.5,179.7"/>
<path class="st0" d="M129.3,218.2"/>
<path class="st0" d="M172.5,215.4"/>
<rect x="409.9" y="197.5" class="st0" width="82" height="84"/>
<rect x="409.9" y="238.5" class="st0" width="30" height="43"/>
<path class="st0" d="M136.2,197.2"/>
<line class="st0" x1="136.2" y1="292.3" x2="136.3" y2="281.6"/>
<polyline class="st4" points="139.9,116 139.9,104.5 299.9,104.5 299.9,291 136.9,291.9 "/>
<line class="st0" x1="611.9" y1="294" x2="611.9" y2="304"/>
<polyline class="st0" points="333.2,304.2 333.2,294.5 612.4,294.5 "/>
<path class="st0" d="M332.2,302.6"/>
<line class="st0" x1="331.9" y1="369" x2="331.9" y2="368"/>
<polyline class="st0" points="611.9,369 611.9,376.5 331.9,376.5 331.9,365 "/>
<line class="st0" x1="611.9" y1="366" x2="611.9" y2="371"/>
<path class="st0" d="M611.1,365.5"/>
<polyline class="st2" points="172.2,218.6 172.4,281.4 48,281.2 47.6,115.8 172.4,115.5 172.2,177.3 "/>
<line class="st0" x1="47.4" y1="197.5" x2="138.4" y2="197.5"/>
<path class="st0" d="M152.2,179.7"/>
<path class="st0" d="M151.6,217.7"/>
<polygon class="st5" points="362.4,364.2 47.8,364 48,303.9 362.4,303.8 "/>
<polygon class="st0" points="361.9,364.2 47.5,364 47.7,303.9 361.9,303.8 "/>
<polygon class="st6" points="362.4,364.2 47.8,364 48,303.9 362.4,303.8 "/>
<polygon class="st0" points="361.9,364.2 47.5,364 47.7,303.9 361.9,303.8 "/>
<polyline class="st4" points="172.7,218.7 136.9,218.5 136.9,177.5 172.7,177.3 "/>
<rect x="47.9" y="404.5" class="st2" width="15" height="111"/>
<line class="st7" x1="662.7" y1="34.6" x2="689.6" y2="34.6"/>
<rect x="664.2" y="3" class="st7" width="24.3" height="24.7"/>
<rect x="663.9" y="54.5" class="st3" width="27.4" height="27.4"/>
<rect x="664.3" y="108" class="st2" width="27.4" height="27.4"/>
<text transform="matrix(1 0 0 1 708.42 128.29)" class="st8 st9">QUIET STUDY</text>
<text transform="matrix(1 0 0 1 707.98 74.84)" class="st8 st9">SILENT STUDY ROOMS</text>
<text transform="matrix(1 0 0 1 707.5 21.46)" class="st8 st9">POP -UPS</text>
<image style="overflow:visible;enable-background:new    ;" width="2000" height="1845" xlink:href="93A8C90EC093BF75.png"  transform="matrix(2.000000e-02 0 0 2.000000e-02 352.72 227.98)">
</image>
<path class="st0" d="M43,506.7"/>
<path class="st0" d="M43,515.6"/>
<polygon class="st10" points="327.1,403 327.3,529 321.4,529 321.1,403 "/>
<polygon class="st0" points="327.1,402.5 327.3,528.5 321.4,528.5 321.1,402.5 "/>
<line class="st0" x1="324.2" y1="528.9" x2="324.1" y2="402.9"/>
<line class="st0" x1="321.1" y1="511.2" x2="327.3" y2="511.3"/>
<line class="st0" x1="321" y1="502.1" x2="327" y2="502.2"/>
<line class="st0" x1="321.4" y1="493.5" x2="327.4" y2="493.5"/>
<line class="st0" x1="321.4" y1="483.5" x2="327.4" y2="483.5"/>
<line class="st0" x1="321.4" y1="474.5" x2="327.4" y2="474.5"/>
<line class="st0" x1="321.4" y1="466.5" x2="327.4" y2="466.5"/>
<line class="st0" x1="321.4" y1="457.5" x2="327.4" y2="457.5"/>
<line class="st0" x1="321.2" y1="448" x2="326.9" y2="448.1"/>
<line class="st0" x1="321.2" y1="438.9" x2="326.9" y2="439"/>
<line class="st0" x1="321.2" y1="430" x2="327" y2="430.1"/>
<line class="st0" x1="321.1" y1="420.9" x2="326.9" y2="421"/>
<line class="st0" x1="321.4" y1="411.5" x2="327.4" y2="411.5"/>
<line class="st0" x1="321.4" y1="520.5" x2="327.4" y2="520.5"/>
<polygon class="st10" points="422.9,403 423.1,529 417.2,529 416.9,403 "/>
<polygon class="st0" points="422.9,402.5 423.1,528.5 417.2,528.5 416.9,402.5 "/>
<line class="st0" x1="420" y1="528.7" x2="419.9" y2="402.8"/>
<line class="st0" x1="416.9" y1="511" x2="423" y2="511.1"/>
<line class="st0" x1="416.8" y1="501.9" x2="422.8" y2="502"/>
<line class="st0" x1="417.4" y1="492.5" x2="422.4" y2="492.5"/>
<line class="st0" x1="417.4" y1="483.5" x2="423.4" y2="483.5"/>
<line class="st0" x1="417.4" y1="474.5" x2="423.4" y2="474.5"/>
<line class="st0" x1="417.4" y1="465.5" x2="423.4" y2="465.5"/>
<line class="st0" x1="417" y1="456.9" x2="423.2" y2="456.9"/>
<line class="st0" x1="417" y1="447.9" x2="422.6" y2="448"/>
<line class="st0" x1="417" y1="438.7" x2="422.6" y2="438.8"/>
<line class="st0" x1="417" y1="429.9" x2="422.8" y2="430"/>
<line class="st0" x1="416.9" y1="420.8" x2="422.7" y2="420.9"/>
<line class="st0" x1="417.4" y1="411.5" x2="422.4" y2="411.5"/>
<line class="st0" x1="417.4" y1="520.5" x2="423.4" y2="520.5"/>
<image style="overflow:visible;enable-background:new    ;" width="2000" height="1970" xlink:href="93A8C90EC093BF7B.png"  transform="matrix(2.000000e-02 0 0 2.000000e-02 343.5 317.73)">
</image>
<image style="overflow:visible;enable-background:new    ;" width="512" height="512" xlink:href="93A8C90EC093BF7C.png"  transform="matrix(4.000000e-02 0 0 5.000000e-02 413.02 247.01)">
</image>
<polygon class="st10" points="278.9,402 279.2,528 273.2,528 273,402 "/>
<polygon class="st0" points="278.9,402.5 279.2,528.5 273.2,528.5 273,402.5 "/>
<line class="st0" x1="276.1" y1="528.2" x2="275.9" y2="402.2"/>
<line class="st0" x1="272.9" y1="510.5" x2="279.1" y2="510.6"/>
<line class="st0" x1="272.8" y1="501.4" x2="278.9" y2="501.5"/>
<line class="st0" x1="273.4" y1="492.5" x2="278.4" y2="492.5"/>
<line class="st0" x1="273.4" y1="483.5" x2="279.4" y2="483.5"/>
<line class="st0" x1="273.4" y1="474.5" x2="279.4" y2="474.5"/>
<line class="st0" x1="273.4" y1="465.5" x2="279.4" y2="465.5"/>
<line class="st0" x1="273.4" y1="456.5" x2="278.4" y2="456.5"/>
<line class="st0" x1="273" y1="447.3" x2="278.7" y2="447.4"/>
<line class="st0" x1="273.1" y1="438.2" x2="278.7" y2="438.3"/>
<line class="st0" x1="273.1" y1="429.3" x2="278.9" y2="429.4"/>
<line class="st0" x1="272.9" y1="420.2" x2="278.8" y2="420.3"/>
<line class="st0" x1="273.4" y1="411.5" x2="278.4" y2="411.5"/>
<line class="st0" x1="273.4" y1="519.5" x2="279.4" y2="519.5"/>
<polygon class="st10" points="374.9,402 375.2,528 369.2,528 369,402 "/>
<polygon class="st0" points="374.9,402.5 375.2,528.5 369.2,528.5 369,402.5 "/>
<line class="st0" x1="372.1" y1="528.2" x2="372" y2="402.2"/>
<line class="st0" x1="369" y1="510.5" x2="375.1" y2="510.6"/>
<line class="st0" x1="368.9" y1="501.4" x2="374.9" y2="501.5"/>
<line class="st0" x1="369.4" y1="492.5" x2="374.4" y2="492.5"/>
<line class="st0" x1="369.4" y1="483.5" x2="375.4" y2="483.5"/>
<line class="st0" x1="369.4" y1="474.5" x2="375.4" y2="474.5"/>
<line class="st0" x1="369.4" y1="465.5" x2="375.4" y2="465.5"/>
<line class="st0" x1="369.4" y1="456.5" x2="374.4" y2="456.5"/>
<line class="st0" x1="369" y1="447.3" x2="374.7" y2="447.4"/>
<line class="st0" x1="369.1" y1="438.2" x2="374.7" y2="438.3"/>
<line class="st0" x1="369.1" y1="429.3" x2="374.9" y2="429.4"/>
<line class="st0" x1="369" y1="420.2" x2="374.8" y2="420.3"/>
<line class="st0" x1="369.4" y1="411.5" x2="374.4" y2="411.5"/>
<line class="st0" x1="369.4" y1="519.5" x2="375.4" y2="519.5"/>
<polygon class="st10" points="230,402 230.3,528 224.3,528 224.1,402 "/>
<polygon class="st0" points="230,402.5 230.3,528.5 224.3,528.5 224.1,402.5 "/>
<line class="st0" x1="227.2" y1="528.2" x2="227.1" y2="402.2"/>
<line class="st0" x1="224.1" y1="510.5" x2="230.2" y2="510.6"/>
<line class="st0" x1="224" y1="501.4" x2="230" y2="501.5"/>
<line class="st0" x1="224.4" y1="492.5" x2="229.4" y2="492.5"/>
<line class="st0" x1="224.4" y1="483.5" x2="230.4" y2="483.5"/>
<line class="st0" x1="224.4" y1="474.5" x2="230.4" y2="474.5"/>
<line class="st0" x1="224.4" y1="465.5" x2="230.4" y2="465.5"/>
<line class="st0" x1="224.4" y1="456.5" x2="230.4" y2="456.5"/>
<line class="st0" x1="224.1" y1="447.3" x2="229.8" y2="447.4"/>
<line class="st0" x1="224.2" y1="438.2" x2="229.8" y2="438.3"/>
<line class="st0" x1="224.2" y1="429.3" x2="230" y2="429.4"/>
<line class="st0" x1="224.1" y1="420.2" x2="229.9" y2="420.3"/>
<line class="st0" x1="224.4" y1="411.5" x2="229.4" y2="411.5"/>
<line class="st0" x1="224.4" y1="519.5" x2="230.4" y2="519.5"/>
<polygon class="st10" points="182,402 182.3,528 176.3,528 176.1,402 "/>
<polygon class="st0" points="182,402.5 182.3,528.5 176.3,528.5 176.1,402.5 "/>
<line class="st0" x1="179.2" y1="528.2" x2="179.1" y2="402.2"/>
<line class="st0" x1="176.1" y1="510.5" x2="182.2" y2="510.6"/>
<line class="st0" x1="176" y1="501.4" x2="182" y2="501.5"/>
<line class="st0" x1="176.4" y1="492.5" x2="181.4" y2="492.5"/>
<line class="st0" x1="176.4" y1="483.5" x2="182.4" y2="483.5"/>
<line class="st0" x1="176.4" y1="474.5" x2="182.4" y2="474.5"/>
<line class="st0" x1="176.4" y1="465.5" x2="182.4" y2="465.5"/>
<line class="st0" x1="176.4" y1="456.5" x2="182.4" y2="456.5"/>
<line class="st0" x1="176.1" y1="447.3" x2="181.8" y2="447.4"/>
<line class="st0" x1="176.2" y1="438.2" x2="181.8" y2="438.3"/>
<line class="st0" x1="176.2" y1="429.3" x2="182" y2="429.4"/>
<line class="st0" x1="176" y1="420.2" x2="181.9" y2="420.3"/>
<line class="st0" x1="176.4" y1="411.5" x2="181.4" y2="411.5"/>
<line class="st0" x1="176.4" y1="519.5" x2="182.4" y2="519.5"/>
<polygon class="st10" points="134.9,402 135.1,528 129.2,528 128.9,402 "/>
<polygon class="st0" points="134.9,402.5 135.1,528.5 129.2,528.5 128.9,402.5 "/>
<line class="st0" x1="132" y1="528.2" x2="131.9" y2="402.2"/>
<line class="st0" x1="128.9" y1="510.5" x2="135.1" y2="510.6"/>
<line class="st0" x1="128.8" y1="501.4" x2="134.8" y2="501.5"/>
<line class="st0" x1="129.4" y1="492.5" x2="134.4" y2="492.5"/>
<line class="st0" x1="129.4" y1="483.5" x2="135.4" y2="483.5"/>
<line class="st0" x1="129.4" y1="474.5" x2="135.4" y2="474.5"/>
<line class="st0" x1="129.4" y1="465.5" x2="135.4" y2="465.5"/>
<line class="st0" x1="129.4" y1="456.5" x2="134.4" y2="456.5"/>
<line class="st0" x1="129" y1="447.3" x2="134.7" y2="447.4"/>
<line class="st0" x1="129" y1="438.2" x2="134.7" y2="438.3"/>
<line class="st0" x1="129" y1="429.3" x2="134.8" y2="429.4"/>
<line class="st0" x1="128.9" y1="420.2" x2="134.7" y2="420.3"/>
<line class="st0" x1="129.4" y1="411.5" x2="134.4" y2="411.5"/>
<line class="st0" x1="129.4" y1="519.5" x2="135.4" y2="519.5"/>
<polygon class="st10" points="86,402 86.3,528 80.3,528 80,402 "/>
<polygon class="st0" points="86,402.5 86.3,528.5 80.3,528.5 80,402.5 "/>
<line class="st0" x1="83.2" y1="528.2" x2="83" y2="402.2"/>
<line class="st0" x1="80" y1="510.5" x2="86.2" y2="510.6"/>
<line class="st0" x1="79.9" y1="501.4" x2="85.9" y2="501.5"/>
<line class="st0" x1="80.4" y1="492.5" x2="85.4" y2="492.5"/>
<line class="st0" x1="80.4" y1="483.5" x2="86.4" y2="483.5"/>
<line class="st0" x1="80.4" y1="474.5" x2="86.4" y2="474.5"/>
<line class="st0" x1="80.4" y1="465.5" x2="86.4" y2="465.5"/>
<line class="st0" x1="80.4" y1="456.5" x2="86.4" y2="456.5"/>
<line class="st0" x1="80.1" y1="447.3" x2="85.8" y2="447.4"/>
<line class="st0" x1="80.2" y1="438.2" x2="85.8" y2="438.3"/>
<line class="st0" x1="80.2" y1="429.3" x2="85.9" y2="429.4"/>
<line class="st0" x1="80" y1="420.2" x2="85.9" y2="420.3"/>
<line class="st0" x1="80.4" y1="411.5" x2="85.4" y2="411.5"/>
<line class="st0" x1="80.4" y1="519.5" x2="86.4" y2="519.5"/>
<text transform="matrix(0.95 0 0 1 345.8096 214.3901)" class="st11 st12">W</text>
<text transform="matrix(0.95 0 0 1 354.7773 214.3901)" class="st11 st12">ASHROOM</text>
<text transform="matrix(0.95 0 0 1 152.2598 44.8301)" class="st8 st13" style="text-decoration: underline;">AC338 </text>
<text transform="matrix(0.95 0 0 1 117.0625 58.21)" class="st8 st13" style="text-decoration: underline;">SILENT STUDY ROOM</text>
<text transform="matrix(0.95 0 0 1 156.9497 337.3799)" class="st8 st13" style="text-decoration: underline;">STUDY CARRELS</text>
<text transform="matrix(0.95 0 0 1 71.3096 152.0801)" class="st8 st13" style="text-decoration: underline;">STUDY CARRELS</text>
<text transform="matrix(0.95 0 0 1 71.5796 251.9502)" class="st8 st13" style="text-decoration: underline;">STUDY CARRELS</text>
<text transform="matrix(0.95 0 0 1 497.5703 469.4102)" class="st8 st13" style="text-decoration: underline;">STUDY</text>
<text transform="matrix(0.95 0 0 1 491.0811 482.79)" class="st8 st13" style="text-decoration: underline;">CARRELS</text>
<text transform="matrix(0.95 0 0 1 612.9199 333.25)" class="st8 st13" style="text-decoration: underline;">STUDY</text>
<text transform="matrix(0.95 0 0 1 606.7734 346.6299)" class="st8 st13" style="text-decoration: underline;">CARRELS</text>
<line class="st14" x1="343.2" y1="470.4" x2="357.6" y2="470.4"/>
<rect x="343.9" y="453.5" class="st0" width="13" height="13"/>
<text transform="matrix(6.429396e-17 -1.05 1 6.123234e-17 59.02 503.54)" class="st8 st15" style="text-decoration: underline;">STUDY CARRELS</text>
<image style="overflow:visible;enable-background:new    ;" width="2000" height="1845" xlink:href="93A8C90EC093BF7F.png"  transform="matrix(2.000000e-02 0 0 2.000000e-02 350.25 226.35)">
</image>
<rect x="577.2" y="380.4" class="st0" width="77.8" height="185.1"/>
<line class="st0" x1="655" y1="305.2" x2="655" y2="197.8"/>
<line class="st0" x1="654" y1="281.5" x2="492" y2="281.5"/>
</svg>
